<?xml version="1.0" encoding="UTF-8"?>
<!DOCTYPE svg PUBLIC "-//W3C//DTD SVG 1.1//EN" "http://www.w3.org/Graphics/SVG/1.1/DTD/svg11.dtd">
<!-- Creator: CorelDRAW -->
<svg xmlns="http://www.w3.org/2000/svg" xml:space="preserve" width="20mm" height="20mm" version="1.1" style="shape-rendering:geometricPrecision; text-rendering:geometricPrecision; image-rendering:optimizeQuality; fill-rule:evenodd; clip-rule:evenodd"
viewBox="0 0 44.02 44.02"
 xmlns:xlink="http://www.w3.org/1999/xlink"
 xmlns:xodm="http://www.corel.com/coreldraw/odm/2003">
 <defs>
  <style type="text/css">
   <![CDATA[
    .fil0 {fill:white;fill-rule:nonzero}
   ]]>
  </style>
 </defs>
 <g id="Слой_x0020_1">
  <metadata id="CorelCorpID_0Corel-Layer"/>
  <path class="fil0" d="M3.04 37.95l1.52 0 0 -1.52 -1.52 0 0 1.52zm0 1.52l1.52 0 0 -1.52 -1.52 0 0 1.52zm0 1.52l1.52 0 0 -1.52 -1.52 0 0 1.52zm1.52 -3.04l1.52 0 0 -1.52 -1.52 0 0 1.52zm0 1.52l1.52 0 0 -1.52 -1.52 0 0 1.52zm0 1.52l1.52 0 0 -1.52 -1.52 0 0 1.52zm1.52 -3.04l1.52 0 0 -1.52 -1.52 0 0 1.52zm0 1.52l1.52 0 0 -1.52 -1.52 0 0 1.52zm0 1.52l1.52 0 0 -1.52 -1.52 0 0 1.52zm-6.07 -6.07l1.52 0 0 -1.52 -1.52 0 0 1.52zm0 1.52l1.52 0 0 -1.52 -1.52 0 0 1.52zm0 1.52l1.52 0 0 -1.52 -1.52 0 0 1.52zm0 1.52l1.52 0 0 -1.52 -1.52 0 0 1.52zm0 1.52l1.52 0 0 -1.52 -1.52 0 0 1.52zm0 1.52l1.52 0 0 -1.52 -1.52 0 0 1.52zm0 1.52l1.52 0 0 -1.52 -1.52 0 0 1.52zm1.52 -9.11l1.52 0 0 -1.52 -1.52 0 0 1.52zm0 9.11l1.52 0 0 -1.52 -1.52 0 0 1.52zm1.52 -9.11l1.52 0 0 -1.52 -1.52 0 0 1.52zm0 9.11l1.52 0 0 -1.52 -1.52 0 0 1.52zm1.52 -9.11l1.52 0 0 -1.52 -1.52 0 0 1.52zm0 9.11l1.52 0 0 -1.52 -1.52 0 0 1.52zm1.52 -9.11l1.52 0 0 -1.52 -1.52 0 0 1.52zm0 9.11l1.52 0 0 -1.52 -1.52 0 0 1.52zm1.52 -9.11l1.52 0 0 -1.52 -1.52 0 0 1.52zm0 9.11l1.52 0 0 -1.52 -1.52 0 0 1.52zm1.52 -9.11l1.52 0 0 -1.52 -1.52 0 0 1.52zm0 1.52l1.52 0 0 -1.52 -1.52 0 0 1.52zm0 1.52l1.52 0 0 -1.52 -1.52 0 0 1.52zm0 1.52l1.52 0 0 -1.52 -1.52 0 0 1.52zm0 1.52l1.52 0 0 -1.52 -1.52 0 0 1.52zm0 1.52l1.52 0 0 -1.52 -1.52 0 0 1.52zm0 1.52l1.52 0 0 -1.52 -1.52 0 0 1.52zm27.32 -39.46l1.52 0 0 -1.52 -1.52 0 0 1.52zm0 1.52l1.52 0 0 -1.52 -1.52 0 0 1.52zm0 1.52l1.52 0 0 -1.52 -1.52 0 0 1.52zm1.52 -3.04l1.52 0 0 -1.52 -1.52 0 0 1.52zm0 1.52l1.52 0 0 -1.52 -1.52 0 0 1.52zm0 1.52l1.52 0 0 -1.52 -1.52 0 0 1.52zm1.52 -3.04l1.52 0 0 -1.52 -1.52 0 0 1.52zm0 1.52l1.52 0 0 -1.52 -1.52 0 0 1.52zm0 1.52l1.52 0 0 -1.52 -1.52 0 0 1.52zm-6.07 -6.07l1.52 0 0 -1.52 -1.52 0 0 1.52zm0 1.52l1.52 0 0 -1.52 -1.52 0 0 1.52zm0 1.52l1.52 0 0 -1.52 -1.52 0 0 1.52zm0 1.52l1.52 0 0 -1.52 -1.52 0 0 1.52zm0 1.52l1.52 0 0 -1.52 -1.52 0 0 1.52zm0 1.52l1.52 0 0 -1.52 -1.52 0 0 1.52zm0 1.52l1.52 0 0 -1.52 -1.52 0 0 1.52zm1.52 -9.11l1.52 0 0 -1.52 -1.52 0 0 1.52zm0 9.11l1.52 0 0 -1.52 -1.52 0 0 1.52zm1.52 -9.11l1.52 0 0 -1.52 -1.52 0 0 1.52zm0 9.11l1.52 0 0 -1.52 -1.52 0 0 1.52zm1.52 -9.11l1.52 0 0 -1.52 -1.52 0 0 1.52zm0 9.11l1.52 0 0 -1.52 -1.52 0 0 1.52zm1.52 -9.11l1.52 0 0 -1.52 -1.52 0 0 1.52zm0 9.11l1.52 0 0 -1.52 -1.52 0 0 1.52zm1.52 -9.11l1.52 0 0 -1.52 -1.52 0 0 1.52zm0 9.11l1.52 0 0 -1.52 -1.52 0 0 1.52zm1.52 -9.11l1.52 0 0 -1.52 -1.52 0 0 1.52zm0 1.52l1.52 0 0 -1.52 -1.52 0 0 1.52zm0 1.52l1.52 0 0 -1.52 -1.52 0 0 1.52zm0 1.52l1.52 0 0 -1.52 -1.52 0 0 1.52zm0 1.52l1.52 0 0 -1.52 -1.52 0 0 1.52zm0 1.52l1.52 0 0 -1.52 -1.52 0 0 1.52zm0 1.52l1.52 0 0 -1.52 -1.52 0 0 1.52zm-39.46 -6.07l1.52 0 0 -1.52 -1.52 0 0 1.52zm0 1.52l1.52 0 0 -1.52 -1.52 0 0 1.52zm0 1.52l1.52 0 0 -1.52 -1.52 0 0 1.52zm1.52 -3.04l1.52 0 0 -1.52 -1.52 0 0 1.52zm0 1.52l1.52 0 0 -1.52 -1.52 0 0 1.52zm0 1.52l1.52 0 0 -1.52 -1.52 0 0 1.52zm1.52 -3.04l1.52 0 0 -1.52 -1.52 0 0 1.52zm0 1.52l1.52 0 0 -1.52 -1.52 0 0 1.52zm0 1.52l1.52 0 0 -1.52 -1.52 0 0 1.52zm-6.07 -6.07l1.52 0 0 -1.52 -1.52 0 0 1.52zm0 1.52l1.52 0 0 -1.52 -1.52 0 0 1.52zm0 1.52l1.52 0 0 -1.52 -1.52 0 0 1.52zm0 1.52l1.52 0 0 -1.52 -1.52 0 0 1.52zm0 1.52l1.52 0 0 -1.52 -1.52 0 0 1.52zm0 1.52l1.52 0 0 -1.52 -1.52 0 0 1.52zm0 1.52l1.52 0 0 -1.52 -1.52 0 0 1.52zm1.52 -9.11l1.52 0 0 -1.52 -1.52 0 0 1.52zm0 9.11l1.52 0 0 -1.52 -1.52 0 0 1.52zm1.52 -9.11l1.52 0 0 -1.52 -1.52 0 0 1.52zm0 9.11l1.52 0 0 -1.52 -1.52 0 0 1.52zm1.52 -9.11l1.52 0 0 -1.52 -1.52 0 0 1.52zm0 9.11l1.52 0 0 -1.52 -1.52 0 0 1.52zm1.52 -9.11l1.52 0 0 -1.52 -1.52 0 0 1.52zm0 9.11l1.52 0 0 -1.52 -1.52 0 0 1.52zm1.52 -9.11l1.52 0 0 -1.52 -1.52 0 0 1.52zm0 9.11l1.52 0 0 -1.52 -1.52 0 0 1.52zm1.52 -9.11l1.52 0 0 -1.52 -1.52 0 0 1.52zm0 1.52l1.52 0 0 -1.52 -1.52 0 0 1.52zm0 1.52l1.52 0 0 -1.52 -1.52 0 0 1.52zm0 1.52l1.52 0 0 -1.52 -1.52 0 0 1.52zm0 1.52l1.52 0 0 -1.52 -1.52 0 0 1.52zm0 1.52l1.52 0 0 -1.52 -1.52 0 0 1.52zm0 1.52l1.52 0 0 -1.52 -1.52 0 0 1.52zm-9.11 3.04l1.52 0 0 -1.52 -1.52 0 0 1.52zm0 1.52l1.52 0 0 -1.52 -1.52 0 0 1.52zm0 3.04l1.52 0 0 -1.52 -1.52 0 0 1.52zm0 1.52l1.52 0 0 -1.52 -1.52 0 0 1.52zm0 3.04l1.52 0 0 -1.52 -1.52 0 0 1.52zm0 3.04l1.52 0 0 -1.52 -1.52 0 0 1.52zm0 1.52l1.52 0 0 -1.52 -1.52 0 0 1.52zm0 1.52l1.52 0 0 -1.52 -1.52 0 0 1.52zm0 1.52l1.52 0 0 -1.52 -1.52 0 0 1.52zm0 1.52l1.52 0 0 -1.52 -1.52 0 0 1.52zm1.52 -13.66l1.52 0 0 -1.52 -1.52 0 0 1.52zm0 1.52l1.52 0 0 -1.52 -1.52 0 0 1.52zm0 3.04l1.52 0 0 -1.52 -1.52 0 0 1.52zm1.52 -7.59l1.52 0 0 -1.52 -1.52 0 0 1.52zm0 1.52l1.52 0 0 -1.52 -1.52 0 0 1.52zm0 6.07l1.52 0 0 -1.52 -1.52 0 0 1.52zm0 1.52l1.52 0 0 -1.52 -1.52 0 0 1.52zm0 1.52l1.52 0 0 -1.52 -1.52 0 0 1.52zm1.52 -6.07l1.52 0 0 -1.52 -1.52 0 0 1.52zm0 1.52l1.52 0 0 -1.52 -1.52 0 0 1.52zm0 3.04l1.52 0 0 -1.52 -1.52 0 0 1.52zm0 3.04l1.52 0 0 -1.52 -1.52 0 0 1.52zm1.52 -13.66l1.52 0 0 -1.52 -1.52 0 0 1.52zm0 9.11l1.52 0 0 -1.52 -1.52 0 0 1.52zm0 6.07l1.52 0 0 -1.52 -1.52 0 0 1.52zm0 1.52l1.52 0 0 -1.52 -1.52 0 0 1.52zm0 1.52l1.52 0 0 -1.52 -1.52 0 0 1.52zm1.52 -18.21l1.52 0 0 -1.52 -1.52 0 0 1.52zm0 1.52l1.52 0 0 -1.52 -1.52 0 0 1.52zm0 1.52l1.52 0 0 -1.52 -1.52 0 0 1.52zm0 1.52l1.52 0 0 -1.52 -1.52 0 0 1.52zm0 3.04l1.52 0 0 -1.52 -1.52 0 0 1.52zm0 3.04l1.52 0 0 -1.52 -1.52 0 0 1.52zm1.52 -10.62l1.52 0 0 -1.52 -1.52 0 0 1.52zm0 3.04l1.52 0 0 -1.52 -1.52 0 0 1.52zm0 3.04l1.52 0 0 -1.52 -1.52 0 0 1.52zm0 3.04l1.52 0 0 -1.52 -1.52 0 0 1.52zm0 3.04l1.52 0 0 -1.52 -1.52 0 0 1.52zm0 3.04l1.52 0 0 -1.52 -1.52 0 0 1.52zm0 3.04l1.52 0 0 -1.52 -1.52 0 0 1.52zm1.52 -15.18l1.52 0 0 -1.52 -1.52 0 0 1.52zm0 3.04l1.52 0 0 -1.52 -1.52 0 0 1.52zm0 1.52l1.52 0 0 -1.52 -1.52 0 0 1.52zm0 7.59l1.52 0 0 -1.52 -1.52 0 0 1.52zm0 1.52l1.52 0 0 -1.52 -1.52 0 0 1.52zm0 1.52l1.52 0 0 -1.52 -1.52 0 0 1.52zm1.52 -28.84l1.52 0 0 -1.52 -1.52 0 0 1.52zm0 1.52l1.52 0 0 -1.52 -1.52 0 0 1.52zm0 1.52l1.52 0 0 -1.52 -1.52 0 0 1.52zm0 1.52l1.52 0 0 -1.52 -1.52 0 0 1.52zm0 1.52l1.52 0 0 -1.52 -1.52 0 0 1.52zm0 1.52l1.52 0 0 -1.52 -1.52 0 0 1.52zm0 1.52l1.52 0 0 -1.52 -1.52 0 0 1.52zm0 3.04l1.52 0 0 -1.52 -1.52 0 0 1.52zm0 4.55l1.52 0 0 -1.52 -1.52 0 0 1.52zm0 1.52l1.52 0 0 -1.52 -1.52 0 0 1.52zm0 1.52l1.52 0 0 -1.52 -1.52 0 0 1.52zm0 1.52l1.52 0 0 -1.52 -1.52 0 0 1.52zm0 4.55l1.52 0 0 -1.52 -1.52 0 0 1.52zm0 1.52l1.52 0 0 -1.52 -1.52 0 0 1.52zm0 1.52l1.52 0 0 -1.52 -1.52 0 0 1.52zm0 4.55l1.52 0 0 -1.52 -1.52 0 0 1.52zm0 1.52l1.52 0 0 -1.52 -1.52 0 0 1.52zm0 6.07l1.52 0 0 -1.52 -1.52 0 0 1.52zm1.52 -40.98l1.52 0 0 -1.52 -1.52 0 0 1.52zm0 3.04l1.52 0 0 -1.52 -1.52 0 0 1.52zm0 1.52l1.52 0 0 -1.52 -1.52 0 0 1.52zm0 1.52l1.52 0 0 -1.52 -1.52 0 0 1.52zm0 4.55l1.52 0 0 -1.52 -1.52 0 0 1.52zm0 3.04l1.52 0 0 -1.52 -1.52 0 0 1.52zm0 4.55l1.52 0 0 -1.52 -1.52 0 0 1.52zm0 3.04l1.52 0 0 -1.52 -1.52 0 0 1.52zm0 1.52l1.52 0 0 -1.52 -1.52 0 0 1.52zm0 3.04l1.52 0 0 -1.52 -1.52 0 0 1.52zm0 1.52l1.52 0 0 -1.52 -1.52 0 0 1.52zm0 1.52l1.52 0 0 -1.52 -1.52 0 0 1.52zm0 4.55l1.52 0 0 -1.52 -1.52 0 0 1.52zm0 1.52l1.52 0 0 -1.52 -1.52 0 0 1.52zm0 1.52l1.52 0 0 -1.52 -1.52 0 0 1.52zm0 1.52l1.52 0 0 -1.52 -1.52 0 0 1.52zm0 3.04l1.52 0 0 -1.52 -1.52 0 0 1.52zm1.52 -39.46l1.52 0 0 -1.52 -1.52 0 0 1.52zm0 4.55l1.52 0 0 -1.52 -1.52 0 0 1.52zm0 1.52l1.52 0 0 -1.52 -1.52 0 0 1.52zm0 6.07l1.52 0 0 -1.52 -1.52 0 0 1.52zm0 1.52l1.52 0 0 -1.52 -1.52 0 0 1.52zm0 3.04l1.52 0 0 -1.52 -1.52 0 0 1.52zm0 1.52l1.52 0 0 -1.52 -1.52 0 0 1.52zm0 1.52l1.52 0 0 -1.52 -1.52 0 0 1.52zm0 7.59l1.52 0 0 -1.52 -1.52 0 0 1.52zm0 1.52l1.52 0 0 -1.52 -1.52 0 0 1.52zm0 1.52l1.52 0 0 -1.52 -1.52 0 0 1.52zm0 1.52l1.52 0 0 -1.52 -1.52 0 0 1.52zm0 1.52l1.52 0 0 -1.52 -1.52 0 0 1.52zm0 1.52l1.52 0 0 -1.52 -1.52 0 0 1.52zm0 1.52l1.52 0 0 -1.52 -1.52 0 0 1.52zm1.52 -34.91l1.52 0 0 -1.52 -1.52 0 0 1.52zm0 3.04l1.52 0 0 -1.52 -1.52 0 0 1.52zm0 3.04l1.52 0 0 -1.52 -1.52 0 0 1.52zm0 4.55l1.52 0 0 -1.52 -1.52 0 0 1.52zm0 1.52l1.52 0 0 -1.52 -1.52 0 0 1.52zm0 1.52l1.52 0 0 -1.52 -1.52 0 0 1.52zm0 3.04l1.52 0 0 -1.52 -1.52 0 0 1.52zm0 9.11l1.52 0 0 -1.52 -1.52 0 0 1.52zm0 1.52l1.52 0 0 -1.52 -1.52 0 0 1.52zm0 1.52l1.52 0 0 -1.52 -1.52 0 0 1.52zm0 4.55l1.52 0 0 -1.52 -1.52 0 0 1.52zm0 3.04l1.52 0 0 -1.52 -1.52 0 0 1.52zm1.52 -37.95l1.52 0 0 -1.52 -1.52 0 0 1.52zm0 3.04l1.52 0 0 -1.52 -1.52 0 0 1.52zm0 3.04l1.52 0 0 -1.52 -1.52 0 0 1.52zm0 1.52l1.52 0 0 -1.52 -1.52 0 0 1.52zm0 6.07l1.52 0 0 -1.52 -1.52 0 0 1.52zm0 1.52l1.52 0 0 -1.52 -1.52 0 0 1.52zm0 6.07l1.52 0 0 -1.52 -1.52 0 0 1.52zm0 1.52l1.52 0 0 -1.52 -1.52 0 0 1.52zm0 1.52l1.52 0 0 -1.52 -1.52 0 0 1.52zm0 4.55l1.52 0 0 -1.52 -1.52 0 0 1.52zm0 3.04l1.52 0 0 -1.52 -1.52 0 0 1.52zm0 4.55l1.52 0 0 -1.52 -1.52 0 0 1.52zm0 1.52l1.52 0 0 -1.52 -1.52 0 0 1.52zm0 1.52l1.52 0 0 -1.52 -1.52 0 0 1.52zm1.52 -39.46l1.52 0 0 -1.52 -1.52 0 0 1.52zm0 3.04l1.52 0 0 -1.52 -1.52 0 0 1.52zm0 1.52l1.52 0 0 -1.52 -1.52 0 0 1.52zm0 3.04l1.52 0 0 -1.52 -1.52 0 0 1.52zm0 1.52l1.52 0 0 -1.52 -1.52 0 0 1.52zm0 1.52l1.52 0 0 -1.52 -1.52 0 0 1.52zm0 1.52l1.52 0 0 -1.52 -1.52 0 0 1.52zm0 1.52l1.52 0 0 -1.52 -1.52 0 0 1.52zm0 3.04l1.52 0 0 -1.52 -1.52 0 0 1.52zm0 1.52l1.52 0 0 -1.52 -1.52 0 0 1.52zm0 3.04l1.52 0 0 -1.52 -1.52 0 0 1.52zm0 1.52l1.52 0 0 -1.52 -1.52 0 0 1.52zm0 1.52l1.52 0 0 -1.52 -1.52 0 0 1.52zm0 1.52l1.52 0 0 -1.52 -1.52 0 0 1.52zm0 3.04l1.52 0 0 -1.52 -1.52 0 0 1.52zm0 1.52l1.52 0 0 -1.52 -1.52 0 0 1.52zm0 3.04l1.52 0 0 -1.52 -1.52 0 0 1.52zm0 1.52l1.52 0 0 -1.52 -1.52 0 0 1.52zm0 3.04l1.52 0 0 -1.52 -1.52 0 0 1.52zm0 1.52l1.52 0 0 -1.52 -1.52 0 0 1.52zm1.52 -42.5l1.52 0 0 -1.52 -1.52 0 0 1.52zm0 4.55l1.52 0 0 -1.52 -1.52 0 0 1.52zm0 4.55l1.52 0 0 -1.52 -1.52 0 0 1.52zm0 3.04l1.52 0 0 -1.52 -1.52 0 0 1.52zm0 1.52l1.52 0 0 -1.52 -1.52 0 0 1.52zm0 1.52l1.52 0 0 -1.52 -1.52 0 0 1.52zm0 3.04l1.52 0 0 -1.52 -1.52 0 0 1.52zm0 3.04l1.52 0 0 -1.52 -1.52 0 0 1.52zm0 1.52l1.52 0 0 -1.52 -1.52 0 0 1.52zm0 3.04l1.52 0 0 -1.52 -1.52 0 0 1.52zm0 4.55l1.52 0 0 -1.52 -1.52 0 0 1.52zm0 1.52l1.52 0 0 -1.52 -1.52 0 0 1.52zm0 3.04l1.52 0 0 -1.52 -1.52 0 0 1.52zm1.52 -31.87l1.52 0 0 -1.52 -1.52 0 0 1.52zm0 1.52l1.52 0 0 -1.52 -1.52 0 0 1.52zm0 3.04l1.52 0 0 -1.52 -1.52 0 0 1.52zm0 3.04l1.52 0 0 -1.52 -1.52 0 0 1.52zm0 1.52l1.52 0 0 -1.52 -1.52 0 0 1.52zm0 1.52l1.52 0 0 -1.52 -1.52 0 0 1.52zm0 6.07l1.52 0 0 -1.52 -1.52 0 0 1.52zm0 1.52l1.52 0 0 -1.52 -1.52 0 0 1.52zm0 3.04l1.52 0 0 -1.52 -1.52 0 0 1.52zm0 1.52l1.52 0 0 -1.52 -1.52 0 0 1.52zm0 1.52l1.52 0 0 -1.52 -1.52 0 0 1.52zm0 9.11l1.52 0 0 -1.52 -1.52 0 0 1.52zm0 1.52l1.52 0 0 -1.52 -1.52 0 0 1.52zm0 4.55l1.52 0 0 -1.52 -1.52 0 0 1.52zm1.52 -42.5l1.52 0 0 -1.52 -1.52 0 0 1.52zm0 4.55l1.52 0 0 -1.52 -1.52 0 0 1.52zm0 1.52l1.52 0 0 -1.52 -1.52 0 0 1.52zm0 3.04l1.52 0 0 -1.52 -1.52 0 0 1.52zm0 1.52l1.52 0 0 -1.52 -1.52 0 0 1.52zm0 4.55l1.52 0 0 -1.52 -1.52 0 0 1.52zm0 3.04l1.52 0 0 -1.52 -1.52 0 0 1.52zm0 3.04l1.52 0 0 -1.52 -1.52 0 0 1.52zm0 1.52l1.52 0 0 -1.52 -1.52 0 0 1.52zm0 1.52l1.52 0 0 -1.52 -1.52 0 0 1.52zm0 6.07l1.52 0 0 -1.52 -1.52 0 0 1.52zm0 4.55l1.52 0 0 -1.52 -1.52 0 0 1.52zm0 3.04l1.52 0 0 -1.52 -1.52 0 0 1.52zm0 1.52l1.52 0 0 -1.52 -1.52 0 0 1.52zm0 1.52l1.52 0 0 -1.52 -1.52 0 0 1.52zm1.52 -40.98l1.52 0 0 -1.52 -1.52 0 0 1.52zm0 1.52l1.52 0 0 -1.52 -1.52 0 0 1.52zm0 3.04l1.52 0 0 -1.52 -1.52 0 0 1.52zm0 6.07l1.52 0 0 -1.52 -1.52 0 0 1.52zm0 4.55l1.52 0 0 -1.52 -1.52 0 0 1.52zm0 1.52l1.52 0 0 -1.52 -1.52 0 0 1.52zm0 1.52l1.52 0 0 -1.52 -1.52 0 0 1.52zm0 4.55l1.52 0 0 -1.52 -1.52 0 0 1.52zm0 3.04l1.52 0 0 -1.52 -1.52 0 0 1.52zm0 1.52l1.52 0 0 -1.52 -1.52 0 0 1.52zm0 1.52l1.52 0 0 -1.52 -1.52 0 0 1.52zm0 3.04l1.52 0 0 -1.52 -1.52 0 0 1.52zm0 1.52l1.52 0 0 -1.52 -1.52 0 0 1.52zm0 3.04l1.52 0 0 -1.52 -1.52 0 0 1.52zm0 1.52l1.52 0 0 -1.52 -1.52 0 0 1.52zm0 1.52l1.52 0 0 -1.52 -1.52 0 0 1.52zm0 1.52l1.52 0 0 -1.52 -1.52 0 0 1.52zm0 1.52l1.52 0 0 -1.52 -1.52 0 0 1.52zm1.52 -42.5l1.52 0 0 -1.52 -1.52 0 0 1.52zm0 3.04l1.52 0 0 -1.52 -1.52 0 0 1.52zm0 3.04l1.52 0 0 -1.52 -1.52 0 0 1.52zm0 3.04l1.52 0 0 -1.52 -1.52 0 0 1.52zm0 1.52l1.52 0 0 -1.52 -1.52 0 0 1.52zm0 10.62l1.52 0 0 -1.52 -1.52 0 0 1.52zm0 1.52l1.52 0 0 -1.52 -1.52 0 0 1.52zm0 1.52l1.52 0 0 -1.52 -1.52 0 0 1.52zm0 9.11l1.52 0 0 -1.52 -1.52 0 0 1.52zm0 3.04l1.52 0 0 -1.52 -1.52 0 0 1.52zm0 1.52l1.52 0 0 -1.52 -1.52 0 0 1.52zm1.52 -37.95l1.52 0 0 -1.52 -1.52 0 0 1.52zm0 4.55l1.52 0 0 -1.52 -1.52 0 0 1.52zm0 3.04l1.52 0 0 -1.52 -1.52 0 0 1.52zm0 3.04l1.52 0 0 -1.52 -1.52 0 0 1.52zm0 4.55l1.52 0 0 -1.52 -1.52 0 0 1.52zm0 1.52l1.52 0 0 -1.52 -1.52 0 0 1.52zm0 1.52l1.52 0 0 -1.52 -1.52 0 0 1.52zm0 4.55l1.52 0 0 -1.52 -1.52 0 0 1.52zm0 10.62l1.52 0 0 -1.52 -1.52 0 0 1.52zm0 7.59l1.52 0 0 -1.52 -1.52 0 0 1.52zm1.52 -40.98l1.52 0 0 -1.52 -1.52 0 0 1.52zm0 3.04l1.52 0 0 -1.52 -1.52 0 0 1.52zm0 4.55l1.52 0 0 -1.52 -1.52 0 0 1.52zm0 1.52l1.52 0 0 -1.52 -1.52 0 0 1.52zm0 1.52l1.52 0 0 -1.52 -1.52 0 0 1.52zm0 3.04l1.52 0 0 -1.52 -1.52 0 0 1.52zm0 4.55l1.52 0 0 -1.52 -1.52 0 0 1.52zm0 1.52l1.52 0 0 -1.52 -1.52 0 0 1.52zm0 3.04l1.52 0 0 -1.52 -1.52 0 0 1.52zm0 3.04l1.52 0 0 -1.52 -1.52 0 0 1.52zm0 3.04l1.52 0 0 -1.52 -1.52 0 0 1.52zm0 1.52l1.52 0 0 -1.52 -1.52 0 0 1.52zm0 1.52l1.52 0 0 -1.52 -1.52 0 0 1.52zm0 1.52l1.52 0 0 -1.52 -1.52 0 0 1.52zm0 1.52l1.52 0 0 -1.52 -1.52 0 0 1.52zm0 1.52l1.52 0 0 -1.52 -1.52 0 0 1.52zm0 3.04l1.52 0 0 -1.52 -1.52 0 0 1.52zm0 3.04l1.52 0 0 -1.52 -1.52 0 0 1.52zm1.52 -30.36l1.52 0 0 -1.52 -1.52 0 0 1.52zm0 1.52l1.52 0 0 -1.52 -1.52 0 0 1.52zm0 1.52l1.52 0 0 -1.52 -1.52 0 0 1.52zm0 3.04l1.52 0 0 -1.52 -1.52 0 0 1.52zm0 1.52l1.52 0 0 -1.52 -1.52 0 0 1.52zm0 1.52l1.52 0 0 -1.52 -1.52 0 0 1.52zm0 7.59l1.52 0 0 -1.52 -1.52 0 0 1.52zm0 1.52l1.52 0 0 -1.52 -1.52 0 0 1.52zm0 6.07l1.52 0 0 -1.52 -1.52 0 0 1.52zm0 1.52l1.52 0 0 -1.52 -1.52 0 0 1.52zm0 3.04l1.52 0 0 -1.52 -1.52 0 0 1.52zm0 1.52l1.52 0 0 -1.52 -1.52 0 0 1.52zm1.52 -30.36l1.52 0 0 -1.52 -1.52 0 0 1.52zm0 3.04l1.52 0 0 -1.52 -1.52 0 0 1.52zm0 3.04l1.52 0 0 -1.52 -1.52 0 0 1.52zm0 3.04l1.52 0 0 -1.52 -1.52 0 0 1.52zm0 1.52l1.52 0 0 -1.52 -1.52 0 0 1.52zm0 4.55l1.52 0 0 -1.52 -1.52 0 0 1.52zm0 1.52l1.52 0 0 -1.52 -1.52 0 0 1.52zm0 1.52l1.52 0 0 -1.52 -1.52 0 0 1.52zm0 3.04l1.52 0 0 -1.52 -1.52 0 0 1.52zm0 3.04l1.52 0 0 -1.52 -1.52 0 0 1.52zm1.52 -24.29l1.52 0 0 -1.52 -1.52 0 0 1.52zm0 1.52l1.52 0 0 -1.52 -1.52 0 0 1.52zm0 6.07l1.52 0 0 -1.52 -1.52 0 0 1.52zm0 9.11l1.52 0 0 -1.52 -1.52 0 0 1.52zm0 1.52l1.52 0 0 -1.52 -1.52 0 0 1.52zm0 6.07l1.52 0 0 -1.52 -1.52 0 0 1.52zm0 1.52l1.52 0 0 -1.52 -1.52 0 0 1.52zm0 3.04l1.52 0 0 -1.52 -1.52 0 0 1.52zm0 1.52l1.52 0 0 -1.52 -1.52 0 0 1.52zm1.52 -30.36l1.52 0 0 -1.52 -1.52 0 0 1.52zm0 1.52l1.52 0 0 -1.52 -1.52 0 0 1.52zm0 3.04l1.52 0 0 -1.52 -1.52 0 0 1.52zm0 1.52l1.52 0 0 -1.52 -1.52 0 0 1.52zm0 1.52l1.52 0 0 -1.52 -1.52 0 0 1.52zm0 3.04l1.52 0 0 -1.52 -1.52 0 0 1.52zm0 4.55l1.52 0 0 -1.52 -1.52 0 0 1.52zm0 3.04l1.52 0 0 -1.52 -1.52 0 0 1.52zm0 1.52l1.52 0 0 -1.52 -1.52 0 0 1.52zm0 1.52l1.52 0 0 -1.52 -1.52 0 0 1.52zm0 1.52l1.52 0 0 -1.52 -1.52 0 0 1.52zm0 1.52l1.52 0 0 -1.52 -1.52 0 0 1.52zm0 1.52l1.52 0 0 -1.52 -1.52 0 0 1.52zm0 1.52l1.52 0 0 -1.52 -1.52 0 0 1.52zm0 3.04l1.52 0 0 -1.52 -1.52 0 0 1.52zm1.52 -30.36l1.52 0 0 -1.52 -1.52 0 0 1.52zm0 4.55l1.52 0 0 -1.52 -1.52 0 0 1.52zm0 1.52l1.52 0 0 -1.52 -1.52 0 0 1.52zm0 4.55l1.52 0 0 -1.52 -1.52 0 0 1.52zm0 1.52l1.52 0 0 -1.52 -1.52 0 0 1.52zm0 4.55l1.52 0 0 -1.52 -1.52 0 0 1.52zm0 1.52l1.52 0 0 -1.52 -1.52 0 0 1.52zm0 1.52l1.52 0 0 -1.52 -1.52 0 0 1.52zm0 3.04l1.52 0 0 -1.52 -1.52 0 0 1.52zm0 3.04l1.52 0 0 -1.52 -1.52 0 0 1.52zm0 1.52l1.52 0 0 -1.52 -1.52 0 0 1.52zm1.52 -27.32l1.52 0 0 -1.52 -1.52 0 0 1.52zm0 1.52l1.52 0 0 -1.52 -1.52 0 0 1.52zm0 1.52l1.52 0 0 -1.52 -1.52 0 0 1.52zm0 1.52l1.52 0 0 -1.52 -1.52 0 0 1.52zm0 1.52l1.52 0 0 -1.52 -1.52 0 0 1.52zm0 9.11l1.52 0 0 -1.52 -1.52 0 0 1.52zm0 1.52l1.52 0 0 -1.52 -1.52 0 0 1.52zm0 1.52l1.52 0 0 -1.52 -1.52 0 0 1.52zm0 1.52l1.52 0 0 -1.52 -1.52 0 0 1.52zm0 1.52l1.52 0 0 -1.52 -1.52 0 0 1.52zm0 1.52l1.52 0 0 -1.52 -1.52 0 0 1.52zm0 1.52l1.52 0 0 -1.52 -1.52 0 0 1.52zm0 1.52l1.52 0 0 -1.52 -1.52 0 0 1.52zm0 1.52l1.52 0 0 -1.52 -1.52 0 0 1.52zm0 1.52l1.52 0 0 -1.52 -1.52 0 0 1.52zm1.52 -28.84l1.52 0 0 -1.52 -1.52 0 0 1.52zm0 3.04l1.52 0 0 -1.52 -1.52 0 0 1.52zm0 1.52l1.52 0 0 -1.52 -1.52 0 0 1.52zm0 1.52l1.52 0 0 -1.52 -1.52 0 0 1.52zm0 1.52l1.52 0 0 -1.52 -1.52 0 0 1.52zm0 4.55l1.52 0 0 -1.52 -1.52 0 0 1.52zm0 4.55l1.52 0 0 -1.52 -1.52 0 0 1.52zm0 7.59l1.52 0 0 -1.52 -1.52 0 0 1.52zm0 1.52l1.52 0 0 -1.52 -1.52 0 0 1.52zm0 3.04l1.52 0 0 -1.52 -1.52 0 0 1.52zm1.52 -27.32l1.52 0 0 -1.52 -1.52 0 0 1.52zm0 4.55l1.52 0 0 -1.52 -1.52 0 0 1.52zm0 1.52l1.52 0 0 -1.52 -1.52 0 0 1.52zm0 4.55l1.52 0 0 -1.52 -1.52 0 0 1.52zm0 1.52l1.52 0 0 -1.52 -1.52 0 0 1.52zm0 3.04l1.52 0 0 -1.52 -1.52 0 0 1.52zm0 3.04l1.52 0 0 -1.52 -1.52 0 0 1.52zm0 4.55l1.52 0 0 -1.52 -1.52 0 0 1.52zm0 1.52l1.52 0 0 -1.52 -1.52 0 0 1.52z"/>
 </g>
</svg>
