<?xml version="1.0" encoding="UTF-8"?>
<svg version="1.1" xmlns="http://www.w3.org/2000/svg" width="300" height="300">
<path d="M0 0 C0 0.66 0 1.32 0 2 C-0.76441406 2.268125 -1.52882812 2.53625 -2.31640625 2.8125 C-10.20185553 5.69718903 -17.44201577 9.18644904 -24.78515625 13.23046875 C-26.37650391 14.10638672 -26.37650391 14.10638672 -28 15 C-28.68320313 15.41121094 -29.36640625 15.82242188 -30.0703125 16.24609375 C-32.74189334 17.28984902 -34.96278902 17.04327562 -37.8125 16.875 C-43.60597465 16.79032071 -46.44999103 17.39790957 -51 21 C-55.26698217 26.50216122 -56.03646101 29.81454489 -55.5625 36.625 C-55.34464161 43.08655358 -56.79882347 47.66860031 -59.75 53.375 C-69.51542339 72.45520127 -71.37231334 94.87096262 -65.2578125 115.5234375 C-59.68124232 130.93693893 -50.84403783 143.18161642 -35.875 150.53515625 C-30.68903945 152.75863684 -25.47363626 154.63159094 -20 156 C-20 156.33 -20 156.66 -20 157 C-34.34023529 157.84492385 -46.27266833 154.39533214 -58 146 C-61.19368282 143.16013626 -64.12812626 140.16163679 -67 137 C-67.66 136.34 -68.32 135.68 -69 135 C-59.62918917 148.78207018 -48.71303423 158.27225135 -32 162 C-13.30460551 163.76904797 3.23734579 160.38994078 18.6015625 149.0859375 C27.81204872 141.35405776 34.10216105 130.95996623 36 119 C37.02137227 105.73890436 34.77551637 93.36119136 26 83 C24.08382068 81.15496595 22.1268109 79.61822568 20 78 C18.64900897 76.68456137 17.30794331 75.35824882 16 74 C28.63234182 77.23906201 38.38835806 87.2446562 45 98 C50.95763237 108.29045591 55.49382979 119.99954796 56 132 C56.0515625 133.07378906 56.103125 134.14757812 56.15625 135.25390625 C56.81155225 161.43869194 47.01750589 185.14048316 29.70703125 204.57421875 C12.38444156 222.63263526 -12.0235285 231.65654978 -36.75 232.3125 C-62.55966584 231.85006478 -86.16108595 222.28117566 -106 206 C-106.72445312 205.42765625 -107.44890625 204.8553125 -108.1953125 204.265625 C-113.94917922 199.52714653 -118.45179254 193.87510103 -123 188 C-123.68191406 187.14535156 -124.36382812 186.29070312 -125.06640625 185.41015625 C-144.18121495 160.53472027 -151.22630845 127.54758783 -147.23071289 96.73120117 C-142.42291316 64.88489011 -125.4304785 35.65277764 -99.64501953 16.18798828 C-70.45076101 -4.89530972 -34.34055474 -10.33812512 0 0 Z M-95 25 C-95.33 25.66 -95.66 26.32 -96 27 C-95.01 26.67 -94.02 26.34 -93 26 C-93.66 25.67 -94.32 25.34 -95 25 Z M-100 29 C-123.48396566 50.96123014 -137.92486252 78.73982491 -139.08227539 111.31567383 C-139.50107184 141.12636648 -128.90034284 167.61015679 -109.1875 189.6875 C-108.71916748 190.21762695 -108.25083496 190.74775391 -107.76831055 191.29394531 C-106.57548658 192.59050248 -105.29288345 193.80319513 -104 195 C-103.01 195 -102.02 195 -101 195 C-101.53367188 194.52433594 -102.06734375 194.04867187 -102.6171875 193.55859375 C-121.72906486 175.60401 -132.94266943 148.55279029 -134.11157227 122.51464844 C-134.84777835 89.48417307 -125.93309729 59.01252035 -102.87890625 34.76953125 C-101.27529897 33.15301767 -99.65719328 31.56127856 -98 30 C-98.66 29.67 -99.32 29.34 -100 29 Z M-112.3125 64.4375 C-115.6640304 69.52686097 -116.70856062 73.90412929 -116 80 C-114.63346333 86.22405777 -112.19608745 89.39455157 -107 93 C-102.23872982 95.85676211 -97.39596697 95.49410744 -92 95 C-86.04620655 93.01540218 -82.8038123 89.09224966 -79.6875 83.75 C-78.33034841 78.32139365 -78.32182822 73.07440778 -80.0625 67.75 C-83.17556432 63.33145709 -86.82172996 59.72609001 -92 58 C-100.64029519 57.16073566 -106.16840655 57.96129339 -112.3125 64.4375 Z M45 126 C44.94839722 126.8504187 44.94839722 126.8504187 44.89575195 127.71801758 C43.758322 145.24501961 41.41913933 162.32298194 33 178 C32.51015625 178.9590625 32.0203125 179.918125 31.515625 180.90625 C27.67130011 188.00909789 23.02227504 193.64310491 17.453125 199.40625 C15.44742502 201.52692641 13.6823327 203.62230312 12 206 C26.03513441 199.73718259 35.29452542 183.60268634 41 170 C43.94763524 161.70505211 46.14326876 153.79413869 46.09765625 144.9453125 C46.09443359 143.83671875 46.09121094 142.728125 46.08789062 141.5859375 C46.07951172 140.44382813 46.07113281 139.30171875 46.0625 138.125 C46.05798828 136.9596875 46.05347656 135.794375 46.04882812 134.59375 C46.03708781 131.72911355 46.0206657 128.86458367 46 126 C45.67 126 45.34 126 45 126 Z M-110.875 139.625 C-114.31111341 145.08235659 -115.71329419 150.84649453 -114.4375 157.25 C-112.85238229 162.27970041 -109.85391729 165.4638971 -105.8125 168.8125 C-100.32653582 171.12879599 -94.49113088 171.7851501 -88.75 170 C-83.08535407 167.47728319 -79.90755395 163.17023771 -77.5625 157.5625 C-76.53267119 151.04025087 -77.37251123 145.62886189 -81 140 C-85.75551492 135.4512466 -89.28419145 133.26712871 -95.8125 132.625 C-102.01316898 132.81219001 -106.38355129 135.52411205 -110.875 139.625 Z M-51.4921875 179.5625 C-55.09876596 184.82757805 -55.56581584 189.82746361 -55 196 C-52.88915325 202.66583186 -49.78233969 206.50578054 -43.625 209.8125 C-38.3075662 211.55441797 -34.6924338 211.55441797 -29.375 209.8125 C-23.74756978 206.79036155 -20.16567845 203.04110305 -18 197 C-17.18202299 191.06467905 -17.67674098 186.00267777 -20.66015625 180.7578125 C-23.85031906 176.5724677 -27.86180065 174.02560896 -33 173 C-39.84356023 172.17877277 -46.67079619 174.51392271 -51.4921875 179.5625 Z " fill="#29519B" transform="translate(153,37)"/>
<path d="M0 0 C22.57218301 18.25509883 39.02683742 40.6424275 49.0625 68 C49.45937012 69.05550049 49.45937012 69.05550049 49.86425781 70.13232422 C51.53383569 74.99655218 51.53383569 74.99655218 50.52392578 77.57885742 C49.3651769 79.4762445 48.16521119 81.07775101 46.6953125 82.7421875 C46.17710937 83.33386719 45.65890625 83.92554688 45.125 84.53515625 C44.568125 85.16292969 44.01125 85.79070312 43.4375 86.4375 C42.25221682 87.78872282 41.06732956 89.14029303 39.8828125 90.4921875 C38.9841748 91.5145752 38.9841748 91.5145752 38.06738281 92.55761719 C35.45813653 95.5385758 32.88463983 98.54953272 30.3125 101.5625 C24.47964357 108.38060344 18.60809871 115.16470243 12.72216797 121.93701172 C11.46826999 123.38288161 10.22005501 124.83367555 8.97265625 126.28515625 C8.34230469 127.01605469 7.71195313 127.74695313 7.0625 128.5 C6.54171875 129.10714844 6.0209375 129.71429688 5.484375 130.33984375 C5.09765625 130.74332031 4.7109375 131.14679688 4.3125 131.5625 C3.9825 131.5625 3.6525 131.5625 3.3125 131.5625 C3.22274902 130.92973145 3.13299805 130.29696289 3.04052734 129.64501953 C-1.5424926 98.08895815 -11.54989496 68.32565158 -37.1875 47.53515625 C-53.17182827 35.82868507 -71.46492778 30.44495186 -91.21875 33.0234375 C-106.16097015 35.83336828 -119.7056859 42.99657781 -128.50341797 55.68139648 C-136.12066392 67.38054393 -138.90812841 78.92355713 -135.99609375 92.875 C-132.89226047 103.05661208 -127.480577 111.40338526 -118.6875 117.5625 C-118.0275 117.5625 -117.3675 117.5625 -116.6875 117.5625 C-115.51573482 115.44017021 -114.34995215 113.31492209 -113.1875 111.1875 C-112.85363281 110.58421875 -112.51976562 109.9809375 -112.17578125 109.359375 C-110.29976062 106.14835223 -110.29976062 106.14835223 -109.6875 102.5625 C-110.96947266 102.48902344 -110.96947266 102.48902344 -112.27734375 102.4140625 C-113.38207031 102.33929688 -114.48679688 102.26453125 -115.625 102.1875 C-116.72714844 102.11789063 -117.82929688 102.04828125 -118.96484375 101.9765625 C-119.86332031 101.83992188 -120.76179688 101.70328125 -121.6875 101.5625 C-123.28162284 98.37425432 -122.78924735 94.93353338 -122.75 91.4375 C-122.74548828 90.68339844 -122.74097656 89.92929688 -122.73632812 89.15234375 C-122.72453499 87.28902873 -122.70659942 85.42575445 -122.6875 83.5625 C-123.285625 83.8925 -123.88375 84.2225 -124.5 84.5625 C-126.6875 85.5625 -126.6875 85.5625 -129.6875 85.5625 C-129.6875 82.5925 -129.6875 79.6225 -129.6875 76.5625 C-124.9375 77.4375 -124.9375 77.4375 -122.6875 78.5625 C-122.0275 77.2425 -121.3675 75.9225 -120.6875 74.5625 C-121.40099609 73.95341797 -121.40099609 73.95341797 -122.12890625 73.33203125 C-124.85744292 70.23421894 -124.92013382 66.57201228 -124.6875 62.5625 C-123.09554049 59.31961951 -121.74145191 57.36204972 -118.875 55.1875 C-115.62139157 54.25789759 -113.05947775 54.21367472 -109.6875 54.5625 C-106.25 56.5625 -106.25 56.5625 -103.6875 58.5625 C-103.3471875 58.08039063 -103.006875 57.59828125 -102.65625 57.1015625 C-99.48226711 52.96525501 -96.9403718 50.48546462 -91.703125 49.5859375 C-86.63299079 49.52698245 -83.42801205 51.91652141 -79.75 55.125 C-77.13049068 58.59454876 -77.04780809 61.97408912 -77.24609375 66.21484375 C-77.85853402 69.47215883 -79.29839879 71.32271761 -81.6875 73.5625 C-81.0275 74.2225 -80.3675 74.8825 -79.6875 75.5625 C-79.44458008 78.06860352 -79.44458008 78.06860352 -79.45703125 81.19140625 C-79.45896484 82.30837891 -79.46089844 83.42535156 -79.46289062 84.57617188 C-79.47513672 85.74728516 -79.48738281 86.91839844 -79.5 88.125 C-79.5009668 89.8874707 -79.5009668 89.8874707 -79.50195312 91.68554688 C-79.54737859 100.42237859 -79.54737859 100.42237859 -80.6875 101.5625 C-82.87389453 101.63508946 -85.06250389 101.64623783 -87.25 101.625 C-89.04630859 101.61146484 -89.04630859 101.61146484 -90.87890625 101.59765625 C-92.26916016 101.58025391 -92.26916016 101.58025391 -93.6875 101.5625 C-92.44815454 107.26348911 -90.06978757 111.52031391 -86.9296875 116.42578125 C-85.6875 118.5625 -85.6875 118.5625 -85.6875 120.5625 C-87.6675 120.8925 -89.6475 121.2225 -91.6875 121.5625 C-94.6575 116.1175 -94.6575 116.1175 -97.6875 110.5625 C-98.3475 114.5225 -99.0075 118.4825 -99.6875 122.5625 C-101.3375 122.5625 -102.9875 122.5625 -104.6875 122.5625 C-105.1825 116.6225 -105.1825 116.6225 -105.6875 110.5625 C-107.6675 114.1925 -109.6475 117.8225 -111.6875 121.5625 C-123.18553295 120.40684529 -134.03789228 114.157233 -141.6875 105.5625 C-149.73956959 95.63649421 -155.07438329 83.43795098 -155.6875 70.5625 C-155.76291016 69.06396484 -155.76291016 69.06396484 -155.83984375 67.53515625 C-156.49685905 44.17169215 -148.06815145 23.0066443 -132.0546875 5.96875 C-131.27351563 5.1746875 -130.49234375 4.380625 -129.6875 3.5625 C-128.92695313 2.7890625 -128.16640625 2.015625 -127.3828125 1.21875 C-91.91874403 -32.73373523 -37.03180505 -27.98389456 0 0 Z M-55.6875 -15.4375 C-56.06968767 -13.78135343 -56.40145102 -12.11292976 -56.6875 -10.4375 C-55.62104885 -9.14116379 -55.62104885 -9.14116379 -53.125 -9.375 C-52.320625 -9.395625 -51.51625 -9.41625 -50.6875 -9.4375 C-50.6875 -11.0875 -50.6875 -12.7375 -50.6875 -14.4375 C-52.3375 -14.7675 -53.9875 -15.0975 -55.6875 -15.4375 Z M-85.6875 -13.4375 C-85.6875 -11.7875 -85.6875 -10.1375 -85.6875 -8.4375 C-83.7075 -8.4375 -81.7275 -8.4375 -79.6875 -8.4375 C-80.0175 -10.0875 -80.3475 -11.7375 -80.6875 -13.4375 C-82.3375 -13.4375 -83.9875 -13.4375 -85.6875 -13.4375 Z M-41.6875 -12.4375 C-42.0175 -10.7875 -42.3475 -9.1375 -42.6875 -7.4375 C-40.2125 -6.4475 -40.2125 -6.4475 -37.6875 -5.4375 C-37.0275 -7.0875 -36.3675 -8.7375 -35.6875 -10.4375 C-37.6675 -11.0975 -39.6475 -11.7575 -41.6875 -12.4375 Z M-100.6875 -8.4375 C-100.0275 -6.7875 -99.3675 -5.1375 -98.6875 -3.4375 C-97.0375 -3.7675 -95.3875 -4.0975 -93.6875 -4.4375 C-94.0175 -6.0875 -94.3475 -7.7375 -94.6875 -9.4375 C-97.74020463 -9.59561388 -97.74020463 -9.59561388 -100.6875 -8.4375 Z M-26.6875 -7.4375 C-27.3475 -5.7875 -28.0075 -4.1375 -28.6875 -2.4375 C-26.2125 -1.4475 -26.2125 -1.4475 -23.6875 -0.4375 C-23.0275 -2.0875 -22.3675 -3.7375 -21.6875 -5.4375 C-24.1625 -6.4275 -24.1625 -6.4275 -26.6875 -7.4375 Z M-111.75 -1.4375 C-112.389375 -0.7775 -113.02875 -0.1175 -113.6875 0.5625 C-112.6975 2.0475 -112.6975 2.0475 -111.6875 3.5625 C-110.0375 2.9025 -108.3875 2.2425 -106.6875 1.5625 C-107.3475 -0.0875 -108.0075 -1.7375 -108.6875 -3.4375 C-110.04667681 -3.55352431 -110.04667681 -3.55352431 -111.75 -1.4375 Z M-13.6875 -0.4375 C-15.1725 2.0375 -15.1725 2.0375 -16.6875 4.5625 C-13.99027016 6.8125372 -13.99027016 6.8125372 -11.5625 6.375 C-10.94375 6.106875 -10.325 5.83875 -9.6875 5.5625 C-9.3575 4.5725 -9.0275 3.5825 -8.6875 2.5625 C-10.3375 1.5725 -11.9875 0.5825 -13.6875 -0.4375 Z M-124.3125 7.0625 C-124.76625 7.5575 -125.22 8.0525 -125.6875 8.5625 C-125.0275 9.8825 -124.3675 11.2025 -123.6875 12.5625 C-122.3675 12.2325 -121.0475 11.9025 -119.6875 11.5625 C-119.3893576 7.7861068 -119.3893576 7.7861068 -120.6875 5.5625 C-122.81114481 5.33640663 -122.81114481 5.33640663 -124.3125 7.0625 Z M-1.6875 8.5625 C-3.1725 10.5425 -3.1725 10.5425 -4.6875 12.5625 C-3.6975 13.5525 -2.7075 14.5425 -1.6875 15.5625 C-0.3675 14.9025 0.9525 14.2425 2.3125 13.5625 C2.3125 12.5725 2.3125 11.5825 2.3125 10.5625 C0.9925 9.9025 -0.3275 9.2425 -1.6875 8.5625 Z M-132.6875 16.5625 C-134.1725 19.0375 -134.1725 19.0375 -135.6875 21.5625 C-135.0275 22.2225 -134.3675 22.8825 -133.6875 23.5625 C-131.57929203 23.2439823 -131.57929203 23.2439823 -129.6875 22.5625 C-129.3575 21.2425 -129.0275 19.9225 -128.6875 18.5625 C-130.0075 17.9025 -131.3275 17.2425 -132.6875 16.5625 Z M9.3125 18.5625 C7.8275 20.5425 7.8275 20.5425 6.3125 22.5625 C7.6325 23.8825 8.9525 25.2025 10.3125 26.5625 C11.3025 25.5725 12.2925 24.5825 13.3125 23.5625 C12.0035428 20.44052522 12.0035428 20.44052522 9.3125 18.5625 Z M-65.6875 22.5625 C-66.0175 23.8825 -66.3475 25.2025 -66.6875 26.5625 C-64.7075 26.5625 -62.7275 26.5625 -60.6875 26.5625 C-60.6875 25.2425 -60.6875 23.9225 -60.6875 22.5625 C-62.3375 22.5625 -63.9875 22.5625 -65.6875 22.5625 Z M-51.6875 25.5625 C-52.0175 27.2125 -52.3475 28.8625 -52.6875 30.5625 C-50.2125 31.0575 -50.2125 31.0575 -47.6875 31.5625 C-47.3575 29.9125 -47.0275 28.2625 -46.6875 26.5625 C-48.3375 26.2325 -49.9875 25.9025 -51.6875 25.5625 Z M-140.6875 29.5625 C-142.9648501 32.37759993 -142.9648501 32.37759993 -142.6875 35.5625 C-141.6975 35.8925 -140.7075 36.2225 -139.6875 36.5625 C-138.6975 34.9125 -137.7075 33.2625 -136.6875 31.5625 C-138.0075 30.9025 -139.3275 30.2425 -140.6875 29.5625 Z M19.3125 29.5625 C17.8275 31.5425 17.8275 31.5425 16.3125 33.5625 C17.6325 34.8825 18.9525 36.2025 20.3125 37.5625 C21.3025 36.2425 22.2925 34.9225 23.3125 33.5625 C21.9925 32.2425 20.6725 30.9225 19.3125 29.5625 Z M-38.6875 31.5625 C-38.6875 32.2225 -38.6875 32.8825 -38.6875 33.5625 C-39.6775 34.0575 -39.6775 34.0575 -40.6875 34.5625 C-40.6875 35.2225 -40.6875 35.8825 -40.6875 36.5625 C-38.2125 37.5525 -38.2125 37.5525 -35.6875 38.5625 C-35.0275 37.2425 -34.3675 35.9225 -33.6875 34.5625 C-35.06235532 33.02083358 -35.06235532 33.02083358 -36.6875 31.5625 C-37.3475 31.5625 -38.0075 31.5625 -38.6875 31.5625 Z M-26.6875 40.5625 C-27.3475 41.2225 -28.0075 41.8825 -28.6875 42.5625 C-28.3689823 44.67070797 -28.3689823 44.67070797 -27.6875 46.5625 C-26.3675 46.5625 -25.0475 46.5625 -23.6875 46.5625 C-23.0275 45.5725 -22.3675 44.5825 -21.6875 43.5625 C-23.3375 42.5725 -24.9875 41.5825 -26.6875 40.5625 Z M25.6875 44.0625 C25.23375 44.5575 24.78 45.0525 24.3125 45.5625 C25.6325 46.8825 26.9525 48.2025 28.3125 49.5625 C29.3025 48.9025 30.2925 48.2425 31.3125 47.5625 C30.6525 45.9125 29.9925 44.2625 29.3125 42.5625 C27.18885519 42.33640663 27.18885519 42.33640663 25.6875 44.0625 Z M-144.6875 44.5625 C-143.6875 46.5625 -143.6875 46.5625 -143.6875 46.5625 Z M-16.6875 51.5625 C-17.3475 52.8825 -18.0075 54.2025 -18.6875 55.5625 C-17.6975 57.0475 -17.6975 57.0475 -16.6875 58.5625 C-15.3675 57.9025 -14.0475 57.2425 -12.6875 56.5625 C-12.6875 55.5725 -12.6875 54.5825 -12.6875 53.5625 C-14.0075 52.9025 -15.3275 52.2425 -16.6875 51.5625 Z M32.6875 57.0625 C32.23375 57.5575 31.78 58.0525 31.3125 58.5625 C31.9725 59.8825 32.6325 61.2025 33.3125 62.5625 C34.9625 61.9025 36.6125 61.2425 38.3125 60.5625 C37.6525 58.9125 36.9925 57.2625 36.3125 55.5625 C34.18885519 55.33640663 34.18885519 55.33640663 32.6875 57.0625 Z M-9.6875 64.5625 C-9.3575 66.5425 -9.0275 68.5225 -8.6875 70.5625 C-7.0375 69.9025 -5.3875 69.2425 -3.6875 68.5625 C-4.3475 66.9125 -5.0075 65.2625 -5.6875 63.5625 C-7.7620356 63.4134288 -7.7620356 63.4134288 -9.6875 64.5625 Z M38.6875 71.0625 C38.23375 71.5575 37.78 72.0525 37.3125 72.5625 C37.9725 73.8825 38.6325 75.2025 39.3125 76.5625 C40.6325 76.2325 41.9525 75.9025 43.3125 75.5625 C42.9825 73.5825 42.6525 71.6025 42.3125 69.5625 C40.18885519 69.33640663 40.18885519 69.33640663 38.6875 71.0625 Z M-2.3125 78.0625 C-2.76625 78.5575 -3.22 79.0525 -3.6875 79.5625 C-3.0275 80.2225 -2.3675 80.8825 -1.6875 81.5625 C-0.14583358 80.18764468 -0.14583358 80.18764468 1.3125 78.5625 C1.3125 77.9025 1.3125 77.2425 1.3125 76.5625 C-0.81114481 76.33640663 -0.81114481 76.33640663 -2.3125 78.0625 Z M1.3125 79.5625 C0.3225 80.2225 -0.6675 80.8825 -1.6875 81.5625 C-1.6875 82.2225 -1.6875 82.8825 -1.6875 83.5625 C-0.3675 83.2325 0.9525 82.9025 2.3125 82.5625 C1.9825 81.5725 1.6525 80.5825 1.3125 79.5625 Z M2.3125 91.5625 C2.6425 92.8825 2.9725 94.2025 3.3125 95.5625 C5.2925 96.0575 5.2925 96.0575 7.3125 96.5625 C8.55796405 94.07157189 8.0892578 93.15169267 7.3125 90.5625 C5.10168149 90.45709074 5.10168149 90.45709074 2.3125 91.5625 Z M-86.6875 94.5625 C-86.6875 95.5525 -86.6875 96.5425 -86.6875 97.5625 C-86.0275 97.5625 -85.3675 97.5625 -84.6875 97.5625 C-84.6875 96.5725 -84.6875 95.5825 -84.6875 94.5625 C-85.3475 94.5625 -86.0075 94.5625 -86.6875 94.5625 Z M6.3125 105.5625 C7.3025 106.0575 7.3025 106.0575 8.3125 106.5625 C8.9375 109.125 8.9375 109.125 9.3125 111.5625 C10.3025 111.2325 11.2925 110.9025 12.3125 110.5625 C11.9825 108.9125 11.6525 107.2625 11.3125 105.5625 C9.6625 105.5625 8.0125 105.5625 6.3125 105.5625 Z " fill="#2973B3" transform="translate(246.6875,64.4375)"/>
<path d="M0 0 C0 7.92 0 15.84 0 24 C-5.44636767 22.91072647 -9.87818299 21.1170177 -15 19 C-15 14.38 -15 9.76 -15 5 C-3.375 0 -3.375 0 0 0 Z " fill="#29579F" transform="translate(183,139)"/>
<path d="M0 0 C1.485 0.99 1.485 0.99 3 2 C2.01 2.33 1.02 2.66 0 3 C0 2.01 0 1.02 0 0 Z " fill="#2A61A7" transform="translate(238,130)"/>
<path d="M0 0 C0.33 0.66 0.66 1.32 1 2 C0.01 2.33 -0.98 2.66 -2 3 C-2 2.34 -2 1.68 -2 1 C-1.34 0.67 -0.68 0.34 0 0 Z " fill="#29539D" transform="translate(252,156)"/>
<path d="M0 0 C0.33 1.32 0.66 2.64 1 4 C0.34 3.34 -0.32 2.68 -1 2 C-0.67 1.34 -0.34 0.68 0 0 Z " fill="#2A77B7" transform="translate(210,98)"/>
<path d="" fill="#2A69AC" transform="translate(0,0)"/>
<path d="" fill="#2A69AD" transform="translate(0,0)"/>
<path d="" fill="#2A6EB0" transform="translate(0,0)"/>
<path d="" fill="#2A70B2" transform="translate(0,0)"/>
<path d="" fill="#2A70B2" transform="translate(0,0)"/>
<path d="" fill="#2A71B2" transform="translate(0,0)"/>
</svg>
